<svg width="104" height="81" fill="none" xmlns="http://www.w3.org/2000/svg"><g clip-path="url(#logo_svg__a)"><path d="M0 0v52.88L25.992 81l77.283-28.12V0H0Z" fill="#FF5625"></path><path d="M41.354 12.933H35.72a.246.246 0 0 0-.247.245v30.714c0 .135.11.245.247.245h5.634c.136 0 .247-.11.247-.245V13.178a.246.246 0 0 0-.247-.245ZM76.695 21.823c-3.08 0-5.164 1.583-5.95 4.4-.088.317-.439.328-.595-.041l-1.473-3.494a.246.246 0 0 0-.227-.15h-3.824a.246.246 0 0 0-.247.245v28.095c0 .136.11.246.247.246h5.634c.137 0 .247-.11.247-.246v-9.487c0-.296.38-.415.553-.176 1.342 1.85 3.248 2.9 5.635 2.9 4.63 0 7.325-3.849 7.325-11.627 0-7.361-2.695-10.665-7.325-10.665ZM74.17 40.56c-2.273 0-3.62-3.053-3.663-7.36v-.42c.043-5.813 2.147-6.984 3.663-6.984 2.146 0 3.284 2.551 3.284 6.65 0 4.935-1.138 8.113-3.284 8.113v.002ZM43.56 22.538a.304.304 0 0 0-.28.425l.968 2.182 8.206 18.796c.044.105-.033.194-.147.196h-7.373a.16.16 0 0 0-.16.16v6.496c0 .167.137.303.305.303h.104c4.258 0 7.544-3.943 9.351-8.174l8.507-20.044a.245.245 0 0 0-.227-.34h-1.839a.248.248 0 0 0-.227.149l-4.923 11.497a.307.307 0 0 1-.563 0L50.416 22.69a.246.246 0 0 0-.227-.15h-6.63v-.002ZM28.216 43.892V25.649c0-.167.137-.303.305-.303h4.492a.304.304 0 0 0 .304-.302v-1.572a.304.304 0 0 0-.304-.303H28.42a.161.161 0 0 1-.153-.11l-2.034-4.531a.16.16 0 0 1 .153-.211l7.3.01a.161.161 0 0 0 .161-.16v-4.928a.305.305 0 0 0-.317-.304c-2.802.14-6.112 1.114-8.888 3.78-2.38 2.289-2.712 6.374-2.712 6.374a.162.162 0 0 1-.139.079h-2.174a.304.304 0 0 0-.305.302v1.572c0 .167.137.302.305.302h1.666c.168 0 .304.136.304.303V43.89c0 .136.11.246.247.246h6.134c.136 0 .247-.11.247-.246l.001.002Z" fill="#fff"></path></g><defs><clipPath id="logo_svg__a"><path fill="#fff" d="M0 0h103.275v81H0z"></path></clipPath></defs></svg>